<?xml version="1.0" standalone="no"?>
<!DOCTYPE svg PUBLIC "-//W3C//DTD SVG 20010904//EN"
 "http://www.w3.org/TR/2001/REC-SVG-20010904/DTD/svg10.dtd">
<svg version="1.0" xmlns="http://www.w3.org/2000/svg"
 width="359.000000pt" height="359.000000pt" viewBox="0 0 359.000000 359.000000"
 preserveAspectRatio="xMidYMid meet">
<metadata>
Created by potrace 1.14, written by Peter Selinger 2001-2017
</metadata>
<g transform="translate(0.000000,359.000000) scale(0.100000,-0.100000)"
fill="#000000" stroke="none">
<path d="M0 3377 l0 -214 183 -6 c461 -15 884 -121 1277 -320 847 -428 1449
-1250 1624 -2217 28 -156 42 -288 52 -483 l6 -137 224 0 224 0 0 1795 0 1795
-585 0 -584 0 5 -32 c45 -251 106 -453 216 -708 82 -191 240 -489 306 -577
246 -324 442 -741 540 -1148 33 -134 72 -349 72 -391 0 -55 -22 -16 -61 109
-149 475 -395 953 -666 1293 -605 757 -1452 1189 -2581 1317 -106 12 -194 27
-195 32 -6 30 513 30 743 0 685 -89 1315 -369 1759 -782 46 -43 82 -73 80 -68
-2 6 -32 64 -66 130 -121 237 -211 468 -268 690 l-33 130 -1136 3 -1136 2 0
-213z"/>
<path d="M0 2859 l0 -134 98 3 c80 3 100 1 111 -12 11 -13 6 -64 -30 -311
l-43 -295 -26 0 -26 0 -41 273 -41 272 -1 -1160 -1 -1160 60 -27 59 -26 968
615 c532 338 1009 641 1060 673 51 33 94 56 97 52 2 -4 -32 -38 -77 -77 -44
-38 -461 -402 -925 -807 l-843 -738 1360 0 1361 0 0 78 c0 113 -18 299 -41
442 -189 1141 -1072 2087 -2224 2380 -230 59 -397 81 -642 87 l-213 6 0 -134z
m1521 -515 c80 -51 85 -58 66 -87 -20 -28 -378 -441 -386 -444 -3 -1 -14 4
-24 11 -16 13 -9 32 103 282 67 148 128 274 137 281 9 7 21 9 27 6 6 -4 41
-26 77 -49z m986 -994 c45 -80 50 -102 31 -117 -7 -6 -114 -47 -238 -93 -124
-45 -246 -91 -272 -101 -40 -16 -48 -16 -58 -4 -7 8 -10 21 -7 29 9 22 470
366 487 363 8 -1 33 -36 57 -77z"/>
</g>
</svg>
