<svg xmlns="http://www.w3.org/2000/svg" width="22" height="22" fill="none"><path fill="#fff" fill-rule="evenodd" d="M11 1.833a7.333 7.333 0 0 0-7.333 7.334c0 2.84 1.848 5.595 3.874 7.734A26.977 26.977 0 0 0 11 19.958a26.973 26.973 0 0 0 3.46-3.057c2.025-2.139 3.873-4.894 3.873-7.734A7.333 7.333 0 0 0 11 1.833Zm0 19.25-.509.763-.002-.002-.007-.004-.02-.014a12.06 12.06 0 0 1-.353-.248 28.807 28.807 0 0 1-3.9-3.416c-2.098-2.216-4.376-5.419-4.376-8.995a9.167 9.167 0 0 1 18.334 0c0 3.576-2.277 6.78-4.376 8.995a28.796 28.796 0 0 1-3.9 3.416l-.276.196-.076.052-.021.014-.006.004-.002.001s-.001.001-.51-.762Zm0 0 .509.763a.917.917 0 0 1-1.018 0l.51-.763Z" clip-rule="evenodd"/><path fill="#fff" fill-rule="evenodd" d="M11 7.333A1.833 1.833 0 1 0 11 11a1.833 1.833 0 0 0 0-3.667ZM7.333 9.167a3.667 3.667 0 1 1 7.334 0 3.667 3.667 0 0 1-7.333 0Z" clip-rule="evenodd"/></svg>