<svg width="22" height="22" viewBox="0 0 22 22" fill="none" xmlns="http://www.w3.org/2000/svg">
<path fill-rule="evenodd" clip-rule="evenodd" d="M11.0002 1.83333C9.05524 1.83333 7.18998 2.60595 5.81471 3.98122C4.43945 5.35648 3.66683 7.22175 3.66683 9.16667C3.66683 12.0066 5.51459 14.7622 7.54062 16.9008C8.53489 17.9503 9.53227 18.8095 10.2821 19.4066C10.5612 19.6288 10.8049 19.8139 11.0002 19.9582C11.1954 19.8139 11.4391 19.6288 11.7182 19.4066C12.4681 18.8095 13.4654 17.9503 14.4597 16.9008C16.4857 14.7622 18.3335 12.0066 18.3335 9.16667C18.3335 7.22175 17.5609 5.35648 16.1856 3.98122C14.8103 2.60595 12.9451 1.83333 11.0002 1.83333ZM11.0002 21.0833C10.4917 21.846 10.4915 21.8459 10.4912 21.8457L10.4886 21.844L10.4825 21.8399L10.4615 21.8257C10.4436 21.8135 10.4181 21.7961 10.3856 21.7736C10.3205 21.7285 10.2269 21.6628 10.109 21.5776C9.87316 21.4073 9.53933 21.1587 9.14008 20.8408C8.34305 20.2061 7.27794 19.2893 6.20971 18.1617C4.11074 15.9461 1.8335 12.7434 1.8335 9.16667C1.8335 6.73552 2.79927 4.40394 4.51835 2.68485C6.23743 0.965771 8.56901 0 11.0002 0C13.4313 0 15.7629 0.965771 17.482 2.68485C19.2011 4.40394 20.1668 6.73552 20.1668 9.16667C20.1668 12.7434 17.8896 15.9461 15.7906 18.1617C14.7224 19.2893 13.6573 20.2061 12.8602 20.8408C12.461 21.1587 12.1272 21.4073 11.8914 21.5776C11.7734 21.6628 11.6798 21.7285 11.6147 21.7736C11.5822 21.7961 11.5567 21.8135 11.5389 21.8257L11.5179 21.8399L11.5118 21.844L11.5098 21.8453C11.5096 21.8454 11.5086 21.846 11.0002 21.0833ZM11.0002 21.0833L11.5086 21.846C11.2007 22.0513 10.7991 22.051 10.4912 21.8457L11.0002 21.0833Z" fill="white"/>
<path fill-rule="evenodd" clip-rule="evenodd" d="M11.0002 7.33333C9.98764 7.33333 9.16683 8.15414 9.16683 9.16667C9.16683 10.1792 9.98764 11 11.0002 11C12.0127 11 12.8335 10.1792 12.8335 9.16667C12.8335 8.15414 12.0127 7.33333 11.0002 7.33333ZM7.3335 9.16667C7.3335 7.14162 8.97512 5.5 11.0002 5.5C13.0252 5.5 14.6668 7.14162 14.6668 9.16667C14.6668 11.1917 13.0252 12.8333 11.0002 12.8333C8.97512 12.8333 7.3335 11.1917 7.3335 9.16667Z" fill="white"/>
</svg>
